<?xml version="1.0" encoding="UTF-8"?>
<svg id="Livello_1" data-name="Livello 1" xmlns="http://www.w3.org/2000/svg" width="400" height="688.84" viewBox="0 0 400 688.84">
  <defs>
    <style>
      .cls-1 {
        fill: #fff;
      }
      .cls-2 {
        fill: #d6271f;
      }
      .cls-3 {
        fill: #2f3031;
      }
    </style>
  </defs>
  <path class="cls-2" d="m405.61,316.54c-4.91-25.88-33.47-29.03-57.91-31.16-1.38-.12-2.02-1.74-1.12-2.79,10.41-11.99,49.7-62.51-20.99-80.25-11.11-2.79-36.49-6.18-67.11,3.94-26.1,8.63-45.11,23.19-54.24,32.13-30.18,29.51-21.63,67.88,18.99,81.17,3.35,1.1,7.29,2.09,13.01,2.88,1.42.2,1.94,1.98.83,2.89-4.66,3.78-9.29,7.77-12.01,9.81-17.59,13.21-24.6,28.56-18.79,44.78,12.08,33.69,45.04,28.63,59.36,27.36,1.55-.14,2.37,1.78,1.23,2.82-21.02,19.13-28.2,41.16-19.61,58.33,8.4,16.78,22.23,24.85,45.27,19.09,36.5-9.11,100.75-28.42,122.69-40.89,15.57-8.84,15.88-24.77,12.71-39.52-3.26-15.18-11.93-25.33-27.24-29.32-6.14-1.6-12.57-3.8-23.2-4.22-1.57-.06-2.24-2.04-1-3.01,18.36-14.39,33.99-28.46,29.14-54.05Z"/>
  <g>
    <circle class="cls-1" cx="251.92" cy="268.65" r="16.33"/>
    <circle class="cls-1" cx="302.18" cy="252.04" r="16.33"/>
    <path class="cls-3" d="m309.69,249.62c1.56,4.76-.6,9.39-4.98,10.67-4.48,1.31-8.6-1.16-10.1-6.05-1.44-4.7.45-8.91,4.64-10.34,4.21-1.43,8.94,1.16,10.44,5.72Z"/>
    <path class="cls-3" d="m259.46,266.7c1.37,4.68-.65,8.94-4.84,10.19-4.31,1.29-8.88-1.34-10.29-5.93-1.44-4.7.83-9.3,5.21-10.56,4.42-1.27,8.45,1.29,9.92,6.29Z"/>
  </g>
</svg>
