<?xml version="1.0" encoding="utf-8"?>
<svg version="1.1" id="Livello_1" xmlns="http://www.w3.org/2000/svg" xmlns:xlink="http://www.w3.org/1999/xlink" x="0px" y="0px"
	 viewBox="0 0 400 688.8" style="enable-background:new 0 0 400 688.8;" xml:space="preserve">
<style type="text/css">
	.st0{fill:#883A93;}
	.st1{fill:#FFFFFF;}
	.st2{fill:#2F3031;}
</style>
<path class="st0" d="M143.3,505.4c-11.7-22.1-8.5-31.7,9.3-49.5c11.9-11.9,23.4-24.4,33.7-37.7c12.8-16.6,20.9-35.4,23.7-55.7
	c0.5-3.8-2-7.3-5.7-8.1L32.2,318.7c-3.7-0.8-7.4,1.4-8.5,5.1c-5.6,19.1-6.9,37.4-2.3,55.5c4.8,18.8,11,37.4,18,55.6
	s2,39.4-12.9,52.5c-33.6,29.6-48.3,72.1-53.6,90.2c-1.2,4.1,1.3,8.3,5.5,9.1l173.4,36c3.8,0.8,7.7-1.6,8.5-5.4l0,0
	C169.3,577.7,162.1,541,143.3,505.4L143.3,505.4z"/>
<g>
	<circle class="st1" cx="80.4" cy="397.7" r="16"/>
	<circle class="st1" cx="131.3" cy="408.3" r="16"/>
	<path class="st2" d="M138.8,409.9c-1,4.8-5.1,7.7-9.5,6.6c-4.4-1.1-6.7-5.2-5.6-10.1c1.1-4.7,4.7-7.4,9-6.5
		C137,400.8,139.8,405.3,138.8,409.9z"/>
	<path class="st2" d="M87.8,399.8c-1.1,4.6-4.9,7.3-9.1,6.3c-4.3-1-6.9-5.5-5.8-10.1c1.1-4.7,5.3-7.5,9.6-6.4
		C86.8,390.7,89,394.8,87.8,399.8L87.8,399.8z"/>
</g>
</svg>
