<?xml version="1.0" encoding="utf-8"?>
<svg version="1.1" id="Livello_1" xmlns="http://www.w3.org/2000/svg" xmlns:xlink="http://www.w3.org/1999/xlink" x="0px" y="0px"
	 viewBox="0 0 400 688.8" style="enable-background:new 0 0 400 688.8;" xml:space="preserve">
<style type="text/css">
	.st0{fill:#F0A51F;}
	.st1{fill:#FFFFFF;}
	.st2{fill:#222223;}
	.st3{fill:#4C7D3E;}
</style>
<g>
	<path class="st0" d="M404.1,679.5L124.9,604c-5.9-1.6-9.5-7.5-7.9-13.3c2.5-9.4,5.1-18.7,8.4-27.8c15.8-43.8,28.4-88.8,53.4-129.3
		c18.5-29.8,40.7-56.3,74.4-74.5c60.8-32.8,144.5-0.5,173,47.7c19.2,32.5,23.3,66.4,23.9,101.1c1,56.6-16.6,109.2-31.8,164
		C416.6,677.6,410.3,681.1,404.1,679.5L404.1,679.5L404.1,679.5z"/>
	<g>
		<circle class="st1" cx="291.2" cy="429.3" r="18.3"/>
		<circle class="st1" cx="348.3" cy="445.3" r="18.3"/>
		<path class="st2" d="M356.8,447.7c-1.5,5.4-6.5,8.4-11.3,6.8c-5-1.6-7.3-6.5-5.6-12c1.6-5.3,6-8.1,10.8-6.7
			C355.4,437.3,358.2,442.6,356.8,447.7L356.8,447.7L356.8,447.7z"/>
		<path class="st2" d="M299.3,432.3c-1.6,5.2-6.2,7.9-10.9,6.5c-4.8-1.5-7.4-6.8-5.9-12c1.6-5.3,6.6-8.2,11.4-6.6
			C299,421.8,301.2,426.7,299.3,432.3L299.3,432.3L299.3,432.3z"/>
	</g>
</g>
<g>
	<path class="st3" d="M-10.3,373.5c-120.8-47.3-90.3-149.6-30.9-164.4c12-3,24.6-3.6,36.7-6c17.8-3.7,20.7-10.1,11.5-26
		c-13.9-24.4-22.2-49.6-11.5-77.4C17.4,43,67,30.5,119,54c37.4,16.9,54.8,48.5,52,86.7c-2.5,34.4-26.7,62.5-64.4,74.7
		c-21.6,6.9-23.3,12.1-9.6,30.7c6.7,9.1,14.2,17.6,20.3,27.1c19.1,29.5,21,60.4,3.8,91.3C105.3,393,74.4,406.7-10.3,373.5
		L-10.3,373.5L-10.3,373.5z"/>
	<g>
		<circle class="st1" cx="53.5" cy="128.9" r="19.3"/>
		<circle class="st1" cx="111.8" cy="151.7" r="19.3"/>
		<path class="st2" d="M120.6,155.1c-2.1,5.5-7.6,8-12.6,5.9c-5-2.2-6.9-7.6-4.7-13.2c2.2-5.4,7.2-7.8,12.1-5.9
			C120.2,144,122.6,149.9,120.6,155.1L120.6,155.1z"/>
		<path class="st2" d="M61.9,132.8c-2.2,5.3-7.4,7.6-12.1,5.6c-4.9-2.1-7-7.9-4.9-13.2c2.2-5.4,7.8-7.8,12.7-5.7
			C62.5,121.7,64.3,127.1,61.9,132.8L61.9,132.8z"/>
	</g>
</g>
</svg>
