<?xml version="1.0" encoding="utf-8"?>
<svg version="1.1" id="Livello_1" xmlns="http://www.w3.org/2000/svg" xmlns:xlink="http://www.w3.org/1999/xlink" x="0px" y="0px"
	 viewBox="0 0 400 688.8" style="enable-background:new 0 0 400 688.8;" xml:space="preserve">
<style type="text/css">
	.st0{fill:#DA045B;enable-background:new    ;}
	.st1{fill:#FFFFFF;}
	.st2{fill:#222223;}
</style>
<path class="st0" d="M171.1,308.9c10.1,28.6,5.4,56-11.1,80.2c-12.9,18.9-17.9,37.9-14.7,60.2c2.3,16.1-3.2,24.1-15.9,28.5
	c-13.4,4.6-23-1.1-28.7-12.7c-10.2-20.4-26.9-29.7-48.4-35.7C2.4,415.4-26.4,365-11.4,319.7c3.8-11.6,10.7-22.6,18-32.5
	c10.2-14,13.9-28.6,10.3-45.3c-2.8-13.2-0.4-24,13.1-29.9c12.5-5.4,22.4-3,31.9,11.3c12.2,18.2,27.6,27.8,49.5,31.7
	C141.3,260.4,161,280.1,171.1,308.9L171.1,308.9L171.1,308.9z"/>
<g>
	<circle class="st1" cx="39.8" cy="312.5" r="16.5"/>
	<circle class="st1" cx="89.9" cy="294" r="16.5"/>
	<path class="st2" d="M97.4,291.3c1.8,4.7-0.3,9.5-4.6,10.9c-4.5,1.5-8.7-0.9-10.4-5.7c-1.6-4.7,0.1-9,4.3-10.6
		C90.8,284.3,95.7,286.8,97.4,291.3L97.4,291.3L97.4,291.3z"/>
	<path class="st2" d="M47.3,310.3c1.5,4.7-0.3,9-4.5,10.5c-4.3,1.5-9-1-10.6-5.6c-1.6-4.7,0.5-9.4,4.9-10.8
		C41.5,302.9,45.7,305.3,47.3,310.3L47.3,310.3L47.3,310.3z"/>
</g>
</svg>
