<?xml version="1.0" encoding="UTF-8"?>
<svg id="Livello_1" data-name="Livello 1" xmlns="http://www.w3.org/2000/svg" width="230.74mm" height="84.56mm" viewBox="0 0 654.06 239.69">
  <defs>
    <style>
      .cls-1 {
        fill: #2f3031;
      }
    </style>
  </defs>
  <g>
    <path class="cls-1" d="m0,177.65l.71-86.35L0,5.41h28.23l-.94,85.88.94,86.35H0Z"/>
    <path class="cls-1" d="m44.7,177.65V0l42.12,43.53L128.7,0v177.65h-26.82l9.88-116.71h-.24l-24.71,43.06-24.47-43.06h-.24l9.18,116.71h-26.59Z"/>
    <path class="cls-1" d="m208.69,128.48c0,32.24-14.35,52.47-38.83,52.47-10.12,0-18.59-1.18-24.94-3.76V4.71c5.65-1.18,13.64-1.88,23.76-1.88,24.71,0,40.24,16.47,40.24,43.77,0,18.12-8.47,34.36-21.88,40.24,14.35,6.35,21.65,20.24,21.65,41.65Zm-40.94-48.47c5.88-1.65,10.36-5.41,12.94-11.53,2.82-6.12,4.23-12.71,4.23-19.53,0-16-5.65-30.35-16.94-30.59l-.24,61.65Zm.24,83.77c14.35.71,17.18-20.24,17.18-34.59,0-17.18-5.65-30.82-17.18-32.71v67.3Z"/>
    <path class="cls-1" d="m213.86,177.65L236.92,5.18h33.65l23.06,172.47h-26.59l4.47-47.76-.24-.47-17.41-.23-17.88.23-.24.47,4.71,47.76h-26.59Zm30.35-73.65l9.65.24,9.41-.24-9.41-72.71h-.24l-9.41,72.71Z"/>
    <path class="cls-1" d="m372.21,184.47l-54.35-104.24h-.24l9.65,97.41h-24.71V.24l54.59,102.59.23-.24-13.41-97.18h28.24v179.06Z"/>
    <path class="cls-1" d="m388.67,178.12V5.18c6.82-1.65,13.41-2.35,19.76-2.35,29.89,0,44.94,28.94,44.94,86.83,0,64-16,91.3-45.88,91.3-5.89,0-12.24-.94-18.82-2.82Zm22.59-13.18c12.71-2.59,18.82-27.76,18.59-75.3-.24-39.3-6.59-65.41-18.59-69.18v144.47Z"/>
    <path class="cls-1" d="m464.19,177.65l.71-86.35-.71-85.88h28.24l-.94,85.88.94,86.35h-28.24Z"/>
    <path class="cls-1" d="m526.53,177.65l5.18-113.41-.24-41.89v.71l-26.35,34.82V5.41h72.71v52.47l-26.59-34.82v-.71l-.47,41.89,5.41,113.41h-29.65Z"/>
    <path class="cls-1" d="m574.29,177.65l23.06-172.47h33.65l23.06,172.47h-26.59l4.47-47.76-.24-.47-17.41-.23-17.89.23-.23.47,4.7,47.76h-26.59Zm30.35-73.65l9.65.24,9.41-.24-9.41-72.71h-.24l-9.41,72.71Z"/>
  </g>
  <g>
    <path class="cls-1" d="m.21,208.39h6.04v25.93h13.19v5.37H.21v-31.3Z"/>
    <path class="cls-1" d="m24.32,239.69l13.41-31.3h4.25l13.41,31.3h-6.31l-2.95-6.93h-12.56l-2.95,6.93h-6.3Zm11.54-12.29h7.96l-3.98-9.25-3.98,9.25Z"/>
    <path class="cls-1" d="m112.06,208.39v5.37h-8.27v25.93h-6.04v-25.93h-8.27v-5.37h22.58Z"/>
    <path class="cls-1" d="m112.73,239.69l13.41-31.3h4.25l13.41,31.3h-6.31l-2.95-6.93h-12.56l-2.95,6.93h-6.3Zm11.54-12.29h7.96l-3.98-9.25-3.98,9.25Z"/>
    <path class="cls-1" d="m143.93,208.39h6.21l8.54,21.37,8.58-21.37h6.21l-12.65,31.3h-4.25l-12.65-31.3Z"/>
    <path class="cls-1" d="m192.76,207.94c9.66,0,16.32,7.2,16.32,16.1s-6.66,16.1-16.32,16.1-16.32-7.2-16.32-16.1,6.66-16.1,16.32-16.1Zm0,26.83c5.9,0,10.28-4.83,10.28-10.73s-4.38-10.73-10.28-10.73-10.28,4.83-10.28,10.73,4.38,10.73,10.28,10.73Z"/>
    <path class="cls-1" d="m216.88,208.39h6.04v25.93h13.19v5.37h-19.23v-31.3Z"/>
    <path class="cls-1" d="m241,239.69l13.41-31.3h4.25l13.41,31.3h-6.31l-2.95-6.93h-12.56l-2.95,6.93h-6.3Zm11.54-12.29h7.96l-3.98-9.25-3.98,9.25Z"/>
    <path class="cls-1" d="m318.45,208.39c4.96,0,8.23,1.07,10.78,2.95,3.85,2.86,6.21,7.51,6.21,12.69s-2.37,9.84-6.21,12.7c-2.55,1.88-5.81,2.95-10.78,2.95h-9.84v-31.3h9.84Zm8.67,8.85c-1.74-2.19-4.29-3.49-8-3.49h-4.47v20.57h4.47c3.71,0,6.26-1.3,8-3.49,1.43-1.79,2.28-4.2,2.28-6.8s-.85-5.01-2.28-6.79Z"/>
    <path class="cls-1" d="m349.17,213.76v6.48h9.61v5.37h-9.61v8.72h13.19v5.37h-19.23v-31.3h18.78v5.37h-12.74Z"/>
    <path class="cls-1" d="m370.44,208.39h6.04v25.93h13.19v5.37h-19.23v-31.3Z"/>
    <path class="cls-1" d="m433.36,225.83v13.86h-6.04v-31.3h11.4c3.22,0,5.28.89,6.84,2.32,1.7,1.61,2.77,3.89,2.77,6.4s-1.07,4.78-2.77,6.4c-.85.8-1.88,1.43-3.13,1.83l11.71,14.35h-7.47l-11.13-13.86h-2.19Zm5.01-5.37c1.74,0,2.51-.36,3.04-.94.54-.58.89-1.48.89-2.37s-.36-1.83-.89-2.41c-.53-.58-1.3-.98-3.04-.98h-5.01v6.71h5.01Z"/>
    <path class="cls-1" d="m460.05,208.39h6.04v31.3h-6.04v-31.3Z"/>
    <path class="cls-1" d="m476.77,231.33c1.79,1.97,4.52,3.44,7.38,3.44,2.68,0,4.56-1.65,4.56-3.94,0-4.02-5.81-4.51-10.02-6.97-2.46-1.43-4.43-3.58-4.43-7.11,0-5.59,5.14-8.81,10.33-8.81,3.18,0,6.13.76,9.08,2.95l-3.13,4.47c-1.25-1.17-3.35-2.06-5.41-2.06-2.28,0-4.83.99-4.83,3.4,0,5.05,14.44,3.49,14.44,14.04,0,5.54-4.96,9.39-10.6,9.39-4.2,0-8.09-1.75-11.31-4.7l3.93-4.11Z"/>
    <path class="cls-1" d="m506.24,224.04c0,6.08,4.65,10.73,10.69,10.73,4.07,0,7.02-1.97,8.85-4.34l4.16,3.71c-2.77,3.53-7.42,5.99-13.15,5.99-9.75,0-16.59-7.11-16.59-16.1s6.75-16.1,16.5-16.1c4.65,0,8.63,1.75,11.45,4.47l-3.89,4.11c-1.88-1.88-4.52-3.22-7.6-3.22-5.95,0-10.42,4.78-10.42,10.73Z"/>
    <path class="cls-1" d="m533.72,239.69l13.41-31.3h4.25l13.41,31.3h-6.31l-2.95-6.93h-12.56l-2.95,6.93h-6.3Zm11.54-12.29h7.96l-3.98-9.25-3.98,9.25Z"/>
    <path class="cls-1" d="m588.07,208.39v5.37h-8.27v25.93h-6.04v-25.93h-8.27v-5.37h22.58Z"/>
    <path class="cls-1" d="m616.1,208.39v5.37h-8.27v25.93h-6.04v-25.93h-8.27v-5.37h22.58Z"/>
    <path class="cls-1" d="m636.4,207.94c9.66,0,16.32,7.2,16.32,16.1s-6.66,16.1-16.32,16.1-16.32-7.2-16.32-16.1,6.66-16.1,16.32-16.1Zm0,26.83c5.9,0,10.28-4.83,10.28-10.73s-4.38-10.73-10.28-10.73-10.28,4.83-10.28,10.73,4.38,10.73,10.28,10.73Z"/>
  </g>
</svg>
