<?xml version="1.0" encoding="UTF-8"?>
<svg id="Livello_1" data-name="Livello 1" xmlns="http://www.w3.org/2000/svg" width="69.35mm" height="29.44mm" viewBox="0 0 196.59 83.44">
  <defs>
    <style>
      .cls-1 {
        fill: #2f3031;
      }
    </style>
  </defs>
  <g>
    <path class="cls-1" d="m16.08,63.55l-1.02-14.72h-5.1l-.94,14.72H0L6.72.09h11.57l6.81,63.46h-9.02Zm-5.7-21.52h4.25l-2.13-32.24-2.13,32.24Z"/>
    <path class="cls-1" d="m38.03.09v56.49h9.44v6.98h-18.72V.09h9.27Z"/>
    <path class="cls-1" d="m60.4,20.33h9.53v6.81h-9.53v36.41h-9.27V.09h21.78v6.81h-12.5v13.44Z"/>
    <path class="cls-1" d="m76.56.09h17.18c1.3,0,2.4.44,3.28,1.32.88.88,1.32,1.97,1.32,3.27v20.16c0,1.25-.4,2.3-1.19,3.15-.79.85-1.76,1.33-2.89,1.45,1.13.11,2.1.63,2.89,1.53.79.91,1.19,1.93,1.19,3.06v29.52h-9.19v-30.71h-3.32v30.71h-9.27V.09Zm9.27,6.81v19.14h3.32V6.89h-3.32Z"/>
    <path class="cls-1" d="m111.52,20.33h9.53v6.81h-9.53v29.43h12.51v6.98h-21.78V.09h21.78v6.81h-12.51v13.44Z"/>
    <path class="cls-1" d="m140.44,15.23V6.89h-3.32v2.3c0,2.78.65,5.76,1.96,8.93,1.3,3.18,2.74,6.51,4.3,10,1.56,3.49,2.99,7.12,4.3,10.89,1.3,3.77,1.96,7.67,1.96,11.7v8.34c0,1.31-.44,2.38-1.32,3.23-.88.85-1.97,1.28-3.28,1.28h-12.42c-1.31,0-2.4-.42-3.28-1.28-.88-.85-1.32-1.93-1.32-3.23v-17.01h9.1v14.55h3.32v-5.87c0-4.03-.65-7.78-1.96-11.27-1.31-3.49-2.74-6.89-4.3-10.21-1.56-3.32-2.99-6.66-4.3-10.04-1.31-3.37-1.96-6.93-1.96-10.68v-3.83c0-1.25.45-2.32,1.36-3.23s2.01-1.36,3.32-1.36h12.42c1.3,0,2.4.45,3.28,1.36.88.91,1.32,1.99,1.32,3.23v10.55h-9.19Z"/>
    <path class="cls-1" d="m170.98,7.06h-8.25v49.51h8.25v6.98h-12.93c-1.3,0-2.38-.42-3.23-1.28-.85-.85-1.28-1.93-1.28-3.23V4.68c0-1.25.43-2.32,1.28-3.23.85-.91,1.93-1.36,3.23-1.36h12.93v6.98Z"/>
    <path class="cls-1" d="m191.91,0c1.3,0,2.41.45,3.32,1.36.91.91,1.36,1.99,1.36,3.23v54.44c0,1.31-.45,2.38-1.36,3.23-.91.85-2.01,1.28-3.32,1.28h-12.51c-1.3,0-2.38-.42-3.23-1.28-.85-.85-1.28-1.93-1.28-3.23V4.59c0-1.25.43-2.33,1.28-3.23.85-.91,1.93-1.36,3.23-1.36h12.51Zm-4.51,6.89h-3.32v49.68h3.32V6.89Z"/>
  </g>
  <g>
    <path class="cls-1" d="m29.11,72.79h2.05v10.64h-2.05v-10.64Z"/>
    <path class="cls-1" d="m34.46,72.79h2.05v8.82h4.49v1.83h-6.54v-10.64Z"/>
    <path class="cls-1" d="m50.88,74.62v2.2h3.27v1.83h-3.27v4.79h-2.05v-10.64h6.39v1.83h-4.33Z"/>
    <path class="cls-1" d="m58.76,82.5c-.88-.79-1.37-1.92-1.37-3.54v-6.16h2.05v6.31c0,.97.26,1.57.7,1.98.46.44,1.09.68,1.81.68s1.35-.24,1.81-.68c.44-.41.7-1,.7-1.98v-6.31h2.05v6.16c0,1.63-.49,2.75-1.37,3.54-.82.73-1.99,1.09-3.19,1.09s-2.37-.36-3.19-1.09Z"/>
    <path class="cls-1" d="m74.57,72.64c3.28,0,5.55,2.45,5.55,5.47s-2.27,5.47-5.55,5.47-5.55-2.45-5.55-5.47,2.27-5.47,5.55-5.47Zm0,9.12c2.01,0,3.5-1.64,3.5-3.65s-1.49-3.65-3.5-3.65-3.5,1.64-3.5,3.65,1.49,3.65,3.5,3.65Z"/>
    <path class="cls-1" d="m84.82,78.72v4.71h-2.05v-10.64h3.88c1.1,0,1.79.3,2.33.79.58.55.94,1.32.94,2.17s-.36,1.63-.94,2.17c-.29.27-.64.49-1.06.62l3.98,4.88h-2.54l-3.79-4.71h-.74Zm1.7-1.82c.59,0,.85-.12,1.03-.32s.3-.5.3-.81c0-.32-.12-.62-.3-.82s-.44-.33-1.03-.33h-1.7v2.28h1.7Z"/>
    <path class="cls-1" d="m93.89,72.79h2.05v10.64h-2.05v-10.64Z"/>
    <path class="cls-1" d="m107.96,72.79c1.69,0,2.8.36,3.66,1,1.31.97,2.11,2.55,2.11,4.32s-.81,3.35-2.11,4.32c-.87.64-1.98,1-3.66,1h-3.35v-10.64h3.35Zm2.95,3.01c-.59-.74-1.46-1.19-2.72-1.19h-1.52v6.99h1.52c1.26,0,2.13-.44,2.72-1.19.49-.61.78-1.43.78-2.31s-.29-1.7-.78-2.31Z"/>
    <path class="cls-1" d="m118.4,74.62v2.2h3.27v1.83h-3.27v2.96h4.49v1.83h-6.54v-10.64h6.39v1.83h-4.33Z"/>
    <path class="cls-1" d="m125.62,72.79h1.44l5.93,6.93v-6.93h2.05v10.64h-1.44l-5.93-6.93v6.93h-2.05v-10.64Z"/>
    <path class="cls-1" d="m144.98,72.79v1.83h-2.81v8.82h-2.05v-8.82h-2.81v-1.83h7.68Z"/>
    <path class="cls-1" d="m149.29,78.72v4.71h-2.05v-10.64h3.88c1.1,0,1.79.3,2.33.79.58.55.94,1.32.94,2.17s-.36,1.63-.94,2.17c-.29.27-.64.49-1.06.62l3.98,4.88h-2.54l-3.79-4.71h-.74Zm1.7-1.82c.59,0,.85-.12,1.03-.32s.3-.5.3-.81c0-.32-.12-.62-.3-.82s-.44-.33-1.03-.33h-1.7v2.28h1.7Z"/>
    <path class="cls-1" d="m162.69,72.64c3.28,0,5.55,2.45,5.55,5.47s-2.27,5.47-5.55,5.47-5.55-2.45-5.55-5.47,2.27-5.47,5.55-5.47Zm0,9.12c2.01,0,3.5-1.64,3.5-3.65s-1.49-3.65-3.5-3.65-3.5,1.64-3.5,3.65,1.49,3.65,3.5,3.65Z"/>
  </g>
</svg>
