<?xml version="1.0" encoding="UTF-8"?>
<svg id="Livello_1" data-name="Livello 1" xmlns="http://www.w3.org/2000/svg" width="230.74mm" height="146.89mm" viewBox="0 0 654.06 416.37">
  <defs>
    <style>
      .cls-1 {
        fill: #2f3031;
      }
    </style>
  </defs>
  <g>
    <path class="cls-1" d="m23.34,400.58l13.84-22.74h5.16v37.99h-7.33v-21.17l-9.12,14.92h-5.1l-9.12-14.92v21.17h-7.33v-37.99h5.16l13.84,22.74Z"/>
    <path class="cls-1" d="m49.85,415.83l16.28-37.99h5.16l16.28,37.99h-7.65l-3.58-8.41h-15.25l-3.58,8.41h-7.65Zm14-14.92h9.66l-4.83-11.24-4.83,11.24Z"/>
    <path class="cls-1" d="m95.07,377.84h7.33v37.99h-7.33v-37.99Z"/>
    <path class="cls-1" d="m137.12,405.68c2.17,2.39,5.48,4.18,8.96,4.18,3.26,0,5.54-2.01,5.54-4.78,0-4.88-7.06-5.48-12.16-8.47-2.98-1.74-5.37-4.34-5.37-8.63,0-6.79,6.24-10.69,12.54-10.69,3.85,0,7.43.92,11.02,3.58l-3.8,5.43c-1.52-1.41-4.07-2.5-6.57-2.5-2.77,0-5.86,1.19-5.86,4.12,0,6.13,17.53,4.24,17.53,17.04,0,6.73-6.02,11.4-12.86,11.4-5.1,0-9.82-2.12-13.73-5.7l4.78-4.99Z"/>
    <path class="cls-1" d="m192.63,377.84v6.51h-10.04v31.48h-7.33v-31.48h-10.04v-6.51h27.41Z"/>
    <path class="cls-1" d="m193.54,415.83l16.28-37.99h5.16l16.28,37.99h-7.65l-3.58-8.41h-15.25l-3.58,8.41h-7.65Zm14-14.92h9.66l-4.83-11.24-4.83,11.24Z"/>
    <path class="cls-1" d="m259.6,377.84v6.51h-10.04v31.48h-7.33v-31.48h-10.04v-6.51h27.41Z"/>
    <path class="cls-1" d="m267.75,377.84h7.33v37.99h-7.33v-37.99Z"/>
    <path class="cls-1" d="m313.43,396.83c0,7.38,5.65,13.03,12.97,13.03,4.94,0,8.52-2.39,10.75-5.27l5.05,4.51c-3.36,4.28-9.01,7.27-15.95,7.27-11.84,0-20.14-8.63-20.14-19.54s8.2-19.54,20.03-19.54c5.64,0,10.47,2.12,13.89,5.43l-4.72,4.99c-2.28-2.28-5.48-3.91-9.23-3.91-7.22,0-12.65,5.8-12.65,13.02Z"/>
    <path class="cls-1" d="m366.97,377.29c11.73,0,19.81,8.74,19.81,19.54s-8.09,19.54-19.81,19.54-19.81-8.74-19.81-19.54,8.09-19.54,19.81-19.54Zm0,32.56c7.17,0,12.48-5.86,12.48-13.03s-5.32-13.02-12.48-13.02-12.48,5.86-12.48,13.02,5.32,13.03,12.48,13.03Z"/>
    <path class="cls-1" d="m396.94,405.68c2.17,2.39,5.48,4.18,8.96,4.18,3.26,0,5.54-2.01,5.54-4.78,0-4.88-7.06-5.48-12.16-8.47-2.98-1.74-5.37-4.34-5.37-8.63,0-6.79,6.24-10.69,12.54-10.69,3.85,0,7.43.92,11.02,3.58l-3.8,5.43c-1.52-1.41-4.07-2.5-6.57-2.5-2.77,0-5.86,1.19-5.86,4.12,0,6.13,17.53,4.24,17.53,17.04,0,6.73-6.02,11.4-12.86,11.4-5.1,0-9.82-2.12-13.73-5.7l4.78-4.99Z"/>
    <path class="cls-1" d="m430.6,365.9l3.8,8.68h-4.88l-6.51-8.68h7.6Zm-2.44,11.94h7.33v37.99h-7.33v-37.99Z"/>
    <path class="cls-1" d="m482.14,377.84c4.29,0,6.68,1.03,8.52,2.66,2.12,1.84,3.53,4.56,3.53,7.65,0,2.5-1.2,5.05-2.44,6.35,3.37,1.69,5.7,5.48,5.7,9.72,0,3.20-1.35,6.14-3.47,8.20-2.12,2.12-5.05,3.42-9.93,3.42h-14.82v-37.99h12.92Zm-5.59,14.65h5.16c2.28,0,3.31-.54,4.07-1.36.65-.71,1.09-1.68,1.09-2.71s-.43-2.01-1.09-2.72c-.76-.81-1.79-1.36-4.07-1.36h-5.16v8.14Zm7.33,16.83c2.55,0,3.96-.65,4.88-1.68.87-.92,1.36-2.12,1.36-3.47s-.49-2.55-1.36-3.47c-.92-1.03-2.33-1.68-4.88-1.68h-7.33v10.31h7.33Z"/>
    <path class="cls-1" d="m510.95,412.46c-3.15-2.82-4.88-6.84-4.88-12.65v-21.98h7.33v22.52c0,3.47.92,5.59,2.5,7.05,1.63,1.58,3.91,2.44,6.46,2.44s4.83-.87,6.46-2.44c1.57-1.46,2.5-3.58,2.5-7.05v-22.52h7.33v21.98c0,5.81-1.74,9.82-4.88,12.65-2.93,2.61-7.11,3.91-11.4,3.91s-8.46-1.3-11.4-3.91Z"/>
    <path class="cls-1" d="m567.47,377.29c11.73,0,19.81,8.74,19.81,19.54s-8.09,19.54-19.81,19.54-19.81-8.74-19.81-19.54,8.09-19.54,19.81-19.54Zm0,32.56c7.17,0,12.48-5.86,12.48-13.03s-5.32-13.02-12.48-13.02-12.48,5.86-12.48,13.02,5.32,13.03,12.48,13.03Z"/>
    <path class="cls-1" d="m596.81,377.84h5.16l21.17,24.75v-24.75h7.32v37.99h-5.16l-21.17-24.75v24.75h-7.33v-37.99Z"/>
    <path class="cls-1" d="m642.39,377.84h7.33v37.99h-7.33v-37.99Z"/>
  </g>
</svg>
