<?xml version="1.0" encoding="UTF-8"?>
<svg id="Livello_1" data-name="Livello 1" xmlns="http://www.w3.org/2000/svg" width="230.74mm" height="146.89mm" viewBox="0 0 654.06 416.37">
  <defs>
    <style>
      .cls-1 {
        fill: #2f3031;
      }
    </style>
  </defs>
  <g>
    <path class="cls-1" d="m23.34,400.58l13.84-22.74h5.16v37.99h-7.33v-21.17l-9.12,14.92h-5.1l-9.12-14.92v21.17h-7.33v-37.99h5.16l13.84,22.74Z"/>
    <path class="cls-1" d="m49.85,415.83l16.28-37.99h5.16l16.28,37.99h-7.65l-3.58-8.41h-15.25l-3.58,8.41h-7.65Zm14-14.92h9.66l-4.83-11.24-4.83,11.24Z"/>
    <path class="cls-1" d="m95.07,377.84h7.33v37.99h-7.33v-37.99Z"/>
    <path class="cls-1" d="m137.12,405.68c2.17,2.39,5.48,4.18,8.96,4.18,3.26,0,5.54-2.01,5.54-4.78,0-4.88-7.06-5.48-12.16-8.47-2.98-1.74-5.37-4.34-5.37-8.63,0-6.79,6.24-10.69,12.54-10.69,3.85,0,7.43.92,11.02,3.58l-3.8,5.43c-1.52-1.41-4.07-2.5-6.57-2.5-2.77,0-5.86,1.19-5.86,4.12,0,6.13,17.53,4.24,17.53,17.04,0,6.73-6.02,11.4-12.86,11.4-5.1,0-9.82-2.12-13.73-5.7l4.78-4.99Z"/>
    <path class="cls-1" d="m192.63,377.84v6.51h-10.04v31.48h-7.33v-31.48h-10.04v-6.51h27.41Z"/>
    <path class="cls-1" d="m193.54,415.83l16.28-37.99h5.16l16.28,37.99h-7.65l-3.58-8.41h-15.25l-3.58,8.41h-7.65Zm14-14.92h9.66l-4.83-11.24-4.83,11.24Z"/>
    <path class="cls-1" d="m259.6,377.84v6.51h-10.04v31.48h-7.33v-31.48h-10.04v-6.51h27.41Z"/>
    <path class="cls-1" d="m267.75,377.84h7.33v37.99h-7.33v-37.99Z"/>
    <path class="cls-1" d="m313.43,396.83c0,7.38,5.65,13.03,12.97,13.03,4.94,0,8.52-2.39,10.75-5.27l5.05,4.51c-3.36,4.28-9.01,7.27-15.95,7.27-11.84,0-20.14-8.63-20.14-19.54s8.2-19.54,20.03-19.54c5.64,0,10.47,2.12,13.89,5.43l-4.72,4.99c-2.28-2.28-5.48-3.91-9.23-3.91-7.22,0-12.65,5.8-12.65,13.02Z"/>
    <path class="cls-1" d="m366.97,377.29c11.73,0,19.81,8.74,19.81,19.54s-8.09,19.54-19.81,19.54-19.81-8.74-19.81-19.54,8.09-19.54,19.81-19.54Zm0,32.56c7.17,0,12.48-5.86,12.48-13.03s-5.32-13.02-12.48-13.02-12.48,5.86-12.48,13.02,5.32,13.03,12.48,13.03Z"/>
    <path class="cls-1" d="m396.94,405.68c2.17,2.39,5.48,4.18,8.96,4.18,3.26,0,5.54-2.01,5.54-4.78,0-4.88-7.06-5.48-12.16-8.47-2.98-1.74-5.37-4.34-5.37-8.63,0-6.79,6.24-10.69,12.54-10.69,3.85,0,7.43.92,11.02,3.58l-3.8,5.43c-1.52-1.41-4.07-2.5-6.57-2.5-2.77,0-5.86,1.19-5.86,4.12,0,6.13,17.53,4.24,17.53,17.04,0,6.73-6.02,11.4-12.86,11.4-5.1,0-9.82-2.12-13.73-5.7l4.78-4.99Z"/>
    <path class="cls-1" d="m430.6,365.9l3.8,8.68h-4.88l-6.51-8.68h7.6Zm-2.44,11.94h7.33v37.99h-7.33v-37.99Z"/>
    <path class="cls-1" d="m482.14,377.84c4.29,0,6.68,1.03,8.52,2.66,2.12,1.84,3.53,4.56,3.53,7.65,0,2.5-1.2,5.05-2.44,6.35,3.37,1.69,5.7,5.48,5.7,9.72,0,3.2-1.35,6.14-3.47,8.2-2.12,2.12-5.05,3.42-9.93,3.42h-14.82v-37.99h12.92Zm-5.59,14.65h5.16c2.28,0,3.31-.54,4.07-1.36.65-.71,1.09-1.68,1.09-2.71s-.43-2.01-1.09-2.72c-.76-.81-1.79-1.36-4.07-1.36h-5.16v8.14Zm7.33,16.83c2.55,0,3.96-.65,4.88-1.68.87-.92,1.36-2.12,1.36-3.47s-.49-2.55-1.36-3.47c-.92-1.03-2.33-1.68-4.88-1.68h-7.33v10.31h7.33Z"/>
    <path class="cls-1" d="m510.95,412.46c-3.15-2.82-4.88-6.84-4.88-12.65v-21.98h7.33v22.52c0,3.47.92,5.59,2.5,7.05,1.63,1.58,3.91,2.44,6.46,2.44s4.83-.87,6.46-2.44c1.57-1.46,2.5-3.58,2.5-7.05v-22.52h7.33v21.98c0,5.81-1.74,9.82-4.88,12.65-2.93,2.61-7.11,3.91-11.4,3.91s-8.46-1.3-11.4-3.91Z"/>
    <path class="cls-1" d="m567.47,377.29c11.73,0,19.81,8.74,19.81,19.54s-8.09,19.54-19.81,19.54-19.81-8.74-19.81-19.54,8.09-19.54,19.81-19.54Zm0,32.56c7.17,0,12.48-5.86,12.48-13.03s-5.32-13.02-12.48-13.02-12.48,5.86-12.48,13.02,5.32,13.03,12.48,13.03Z"/>
    <path class="cls-1" d="m596.81,377.84h5.16l21.17,24.75v-24.75h7.32v37.99h-5.16l-21.17-24.75v24.75h-7.33v-37.99Z"/>
    <path class="cls-1" d="m642.39,377.84h7.33v37.99h-7.33v-37.99Z"/>
  </g>
  <g>
    <path class="cls-1" d="m153.26,193.66c-4.4-1.64-9.29-2.46-14.66-2.46-9.25,0-16.64,2.13-22.16,6.38-5.52,4.25-7.72,9.06-6.6,14.43,1.12,5.37,5.56,9.62,13.32,12.76,3.58,1.34,7.53,2.24,11.86,2.69-3.73,3.88-8.66,7.24-14.77,10.07v2.46c13.28-.75,24.51-4.03,33.68-9.85,9.18-5.82,13.76-12.76,13.76-20.82,0-3.28-1.31-6.3-3.92-9.06-2.61-2.76-6.12-4.96-10.52-6.6Z"/>
    <path class="cls-1" d="m104.12,208.23c-1.43-2.85-3.2-5.3-5.3-7.33-2.11-2.03-4.74-3.69-7.9-4.96-3.16-1.28-6.69-1.92-10.6-1.92H0v147.78h80.32c9.47,0,16.47-3.16,20.98-9.48,4.51-6.32,6.77-14.29,6.77-23.92v-80.77c0-3.61-.3-7.03-.9-10.27-.6-3.23-1.62-6.28-3.04-9.14Zm-46.62,122.51h-11.98v-125.44h11.98v125.44Z"/>
    <path class="cls-1" d="m59.98,92.23h1.9c3.07,17.9,10.49,29.84,22.24,35.81,10.31,5.25,20.43,4.98,30.38-.81,9.94-5.97,14.92-15.01,14.92-27.13v-56.43c0-11.39-2.71-20.93-8.14-28.62-5.42-7.69-13.84-11.53-25.23-11.53H-.52v177.68h60.49v-88.98Zm-2.19-79.18h11.98v66.19h-11.98V13.06Z"/>
    <polygon class="cls-1" points="435.14 181.21 500.79 181.21 500.79 40.15 522.49 40.15 522.49 3.53 413.44 3.53 413.44 40.15 435.14 40.15 435.14 181.21"/>
    <path class="cls-1" d="m515.17,181.21h63.45v-53.71h11.98v53.71h63.46l-28.21-141.06h13.29V3.53h-109.05v36.62h13.29l-28.21,141.06Zm63.45-141.33h11.98v66.19h-11.98V39.88Z"/>
    <path class="cls-1" d="m122.37,181.21h63.46v-53.71h11.98v53.71h63.45l-28.21-141.06h13.29V3.53h-109.05v36.62h13.29l-28.21,141.06Zm63.46-141.33h11.98v66.19h-11.98V39.88Z"/>
    <path class="cls-1" d="m231.72,330.74h-11.98v-136.72h-48.04v119.13c0,5.72,1.99,10.87,5.98,15.45,3.98,4.59,9.14,8.05,15.45,10.38,6.32,2.33,13.35,4.02,21.1,5.08,7.74,1.05,15.46,1.05,23.13,0,7.67-1.05,14.7-2.74,21.1-5.08,6.39-2.33,11.54-5.79,15.45-10.38,3.91-4.59,5.87-9.74,5.87-15.45v-119.13h-48.04v136.72Z"/>
    <path class="cls-1" d="m412.63,143.78c.72-7.23,0-14.2-2.17-20.89-2.17-6.69-5.97-12.75-11.39-18.18-5.43-5.42-12.03-9.22-19.8-11.39l-35-10.58.04-25.49h11.98v22.51h51.18V3.53h-48.28v45.3h-1.9c-.54-10.13-2.13-18.58-4.75-25.37-2.63-6.78-6.24-11.75-10.85-14.92-4.61-3.16-9.27-5.38-13.97-6.65-4.71-1.27-10.04-1.9-16-1.9-9.77,0-18.31,1.99-25.64,5.97-7.32,3.98-12.8,8.95-16.41,14.92-3.62,5.97-5.83,12.61-6.65,19.94-.81,7.32-.14,14.33,2.03,21.02,2.17,6.69,5.97,12.75,11.39,18.18,5.42,5.42,12.11,9.13,20.07,11.12l34.72,10.58-.02,24.9h-11.98v-21.92h-50.93v76.5h48.02v-45.3h1.9c.54,10.13,2.17,18.54,4.88,25.23,2.71,6.69,6.37,11.66,10.99,14.92,4.61,3.25,9.22,5.47,13.83,6.65,4.61,1.18,9.99,1.76,16.14,1.76,9.77,0,18.31-1.95,25.64-5.83,7.32-3.89,12.79-8.86,16.41-14.92,3.62-6.06,5.79-12.7,6.51-19.94Z"/>
    <path class="cls-1" d="m471.54,249.74h-2.26l-6.99-55.73h-60.01v147.78h54.06l-15.45-76.42h11.98l15.44,76.42h6.57l7.27-35.97,6.98-35.77v.9c.02.08,0,.16.02.23l1.17-5.81h11.98l-15.45,76.42h51.67v-147.78h-59.79l-7.22,55.73Z"/>
    <path class="cls-1" d="m632.74,197.06c-6.4-2.33-13.43-4.02-21.1-5.08-7.67-1.05-15.38-1.05-23.12,0-7.75,1.05-14.78,2.75-21.1,5.08-6.32,2.33-11.47,5.75-15.46,10.27-3.99,4.51-5.98,9.63-5.98,15.34v90.48c0,6.77,2.67,12.6,8.01,17.48,5.34,4.89,12.03,8.43,20.08,10.61,8.05,2.18,16.73,3.27,26.06,3.27s17.97-1.1,25.94-3.27c7.97-2.18,14.63-5.72,19.97-10.61,5.34-4.88,8.01-10.72,8.01-17.48v-90.48c0-5.71-1.96-10.83-5.87-15.34-3.91-4.51-9.06-7.93-15.45-10.27Zm-26.72,136.25h-11.98v-130.92h11.98v130.92Z"/>
    <path class="cls-1" d="m373.51,197.06c-6.4-2.33-13.43-4.02-21.1-5.08-7.67-1.05-15.38-1.05-23.12,0-7.75,1.05-14.78,2.75-21.1,5.08-6.32,2.33-11.47,5.75-15.46,10.27-3.99,4.51-5.98,9.63-5.98,15.34v90.48c0,6.77,2.67,12.6,8.01,17.48,5.34,4.89,12.03,8.43,20.08,10.61,8.04,2.18,16.73,3.27,26.06,3.27s17.97-1.1,25.95-3.27c7.97-2.18,14.63-5.72,19.97-10.61,5.34-4.88,8.01-10.72,8.01-17.48v-90.48c0-5.71-1.96-10.83-5.87-15.34-3.91-4.51-9.06-7.93-15.45-10.27Zm-26.73,136.25h-11.98v-130.92h11.98v130.92Z"/>
  </g>
</svg>